<?xml version="1.0" standalone="no"?>
<!DOCTYPE svg PUBLIC "-//W3C//DTD SVG 20010904//EN"
 "http://www.w3.org/TR/2001/REC-SVG-20010904/DTD/svg10.dtd">
<svg version="1.0" xmlns="http://www.w3.org/2000/svg"
 width="224.000000pt" height="224.000000pt" viewBox="0 0 224.000000 224.000000"
 preserveAspectRatio="xMidYMid meet">

<g transform="translate(0.000000,224.000000) scale(0.100000,-0.100000)"
fill="#000000" stroke="none">
<path d="M747 1942 c-232 -232 -267 -271 -267 -297 0 -26 19 -49 115 -145 63
-63 123 -118 135 -122 26 -10 66 6 79 31 23 43 13 65 -69 146 -44 44 -80 84
-80 89 0 11 371 386 383 386 4 0 45 -36 90 -80 88 -86 115 -96 158 -62 15 13
22 30 22 52 0 28 -15 48 -120 151 -98 98 -125 119 -149 119 -25 0 -68 -39
-297 -268z"/>
<path d="M1677 2020 c-21 -6 -52 -17 -70 -26 -18 -9 -211 -194 -429 -412 -374
-373 -398 -399 -398 -432 0 -33 14 -49 168 -203 140 -139 173 -167 197 -167
25 0 86 57 427 397 285 284 404 411 420 443 13 27 23 71 26 113 4 60 1 75 -27
131 -59 120 -191 186 -314 156z"/>
<path d="M1892 1303 c-12 -10 -24 -30 -28 -45 -6 -28 19 -61 130 -171 l40 -39
-197 -196 -197 -195 -89 86 c-51 51 -97 87 -108 87 -35 0 -73 -38 -73 -74 0
-27 16 -48 114 -145 126 -126 138 -135 169 -127 12 3 142 126 290 274 199 199
267 274 267 292 0 16 -35 59 -122 147 -130 131 -152 143 -196 106z"/>
<path d="M727 932 c-10 -10 -17 -34 -17 -54 0 -30 9 -44 69 -101 80 -77 114
-86 150 -41 36 46 28 71 -47 146 -59 58 -74 68 -104 68 -21 0 -41 -7 -51 -18z"/>
<path d="M17 822 c-51 -57 36 -306 166 -477 92 -120 223 -218 379 -283 113
-47 290 -77 324 -54 17 11 34 48 34 75 0 36 -28 54 -95 62 -238 26 -435 147
-569 348 -48 73 -75 136 -105 250 -11 39 -28 77 -37 84 -26 19 -78 16 -97 -5z"/>
<path d="M366 821 c-24 -26 -17 -64 29 -160 45 -94 162 -214 247 -254 63 -29
162 -57 202 -57 53 0 95 74 67 118 -4 7 -39 20 -77 29 -148 33 -252 110 -307
228 -16 33 -34 71 -41 85 -16 34 -93 41 -120 11z"/>
</g>
</svg>
